<?xml version="1.0" encoding="UTF-8" standalone="no"?>
<!-- Created with Inkscape (http://www.inkscape.org/) -->

<svg
   xmlns:dc="http://purl.org/dc/elements/1.1/"
   xmlns:cc="http://creativecommons.org/ns#"
   xmlns:rdf="http://www.w3.org/1999/02/22-rdf-syntax-ns#"
   xmlns:svg="http://www.w3.org/2000/svg"
   xmlns="http://www.w3.org/2000/svg"
   xmlns:sodipodi="http://sodipodi.sourceforge.net/DTD/sodipodi-0.dtd"
   xmlns:inkscape="http://www.inkscape.org/namespaces/inkscape"
   width="1.3020828in"
   height="1.3020819in"
   viewBox="0 0 1.3020828 1.3020819"
   version="1.1"
   id="SVGRoot"
   inkscape:version="0.92.3 (2405546, 2018-03-11)"
   sodipodi:docname="favicon.svg">
  <sodipodi:namedview
     id="base"
     pagecolor="#ffffff"
     bordercolor="#666666"
     borderopacity="1.0"
     inkscape:pageopacity="0.0"
     inkscape:pageshadow="2"
     inkscape:zoom="1.4"
     inkscape:cx="215.1602"
     inkscape:cy="115.21825"
     inkscape:document-units="px"
     inkscape:current-layer="layer1"
     showgrid="true"
     inkscape:window-width="1920"
     inkscape:window-height="1013"
     inkscape:window-x="-9"
     inkscape:window-y="-9"
     inkscape:window-maximized="1"
     units="in"
     objecttolerance="10"
     gridtolerance="10"
     guidetolerance="10"
     fit-margin-top="0"
     fit-margin-left="0"
     fit-margin-right="0"
     fit-margin-bottom="0"
     inkscape:measure-start="295.313,95.4911"
     inkscape:measure-end="0,0"
     inkscape:object-paths="false"
     inkscape:snap-global="false">
    <inkscape:grid
       type="xygrid"
       id="grid1442"
       spacingx="0.26041667"
       spacingy="0.26041667"
       dotted="false"
       enabled="true"
       visible="true"
       originx="-1.302084"
       originy="-5.2083336" />
  </sodipodi:namedview>
  <defs
     id="defs883" />
  <metadata
     id="metadata886">
    <rdf:RDF>
      <cc:Work
         rdf:about="">
        <dc:format>image/svg+xml</dc:format>
        <dc:type
           rdf:resource="http://purl.org/dc/dcmitype/StillImage" />
        <dc:title></dc:title>
        <dc:creator>
          <cc:Agent>
            <dc:title>Jacob Strieb</dc:title>
          </cc:Agent>
        </dc:creator>
      </cc:Work>
    </rdf:RDF>
  </metadata>
  <g
     id="layer1"
     inkscape:groupmode="layer"
     inkscape:label="Layer 1"
     transform="translate(-1.302084,-4.4895844)">
    <g
       id="g37771">
      <g
         style="stroke-width:7.875"
         id="g37726"
         transform="matrix(0.12698412,0,0,0.12698412,5.1369352,4.440684)">
        <rect
           style="opacity:1;fill:#009090;fill-opacity:1;stroke:none;stroke-width:0.57421887;stroke-linecap:butt;stroke-linejoin:miter;stroke-miterlimit:4;stroke-dasharray:none;stroke-dashoffset:0;stroke-opacity:1;paint-order:normal"
           id="rect37716"
           width="1.3020828"
           height="1.3020819"
           x="1.3109595"
           y="4.4866433" />
        <flowRoot
           xml:space="preserve"
           id="flowRoot37724"
           style="font-style:normal;font-variant:normal;font-weight:normal;font-stretch:condensed;font-size:42.66666794px;line-height:125%;font-family:'Bernard MT Condensed';-inkscape-font-specification:'Bernard MT Condensed, Condensed';text-align:center;text-anchor:middle;opacity:1;fill:#009090;fill-opacity:1;stroke:none;stroke-width:14.27114868;stroke-linecap:butt;stroke-linejoin:miter;stroke-miterlimit:4;stroke-dasharray:none;stroke-dashoffset:0;stroke-opacity:1;paint-order:normal"
           transform="matrix(0.04245283,0,0,0.03813559,-0.89147335,3.0049997)"><flowRegion
             id="flowRegion37720"
             style="stroke-width:14.27114868"><rect
               id="rect37718"
               width="85.357887"
               height="79.796928"
               x="20.203051"
               y="24.999882"
               style="stroke-width:14.27114868" /></flowRegion><flowPara
             id="flowPara37722"
             style="font-style:normal;font-variant:normal;font-weight:normal;font-stretch:normal;font-family:'Harlow Solid Italic';-inkscape-font-specification:'Harlow Solid Italic, ';fill:#ffffff;stroke-width:3.79656506">Q</flowPara></flowRoot>      </g>
      <g
         id="g37752"
         transform="translate(2.4836841,-0.51789349)">
        <rect
           style="opacity:1;fill:#009090;fill-opacity:1;stroke:none;stroke-width:0.07291668;stroke-linecap:butt;stroke-linejoin:miter;stroke-miterlimit:4;stroke-dasharray:none;stroke-dashoffset:0;stroke-opacity:1;paint-order:normal"
           id="rect37742"
           width="1.3020828"
           height="1.3020819"
           x="1.3109595"
           y="4.4866433" />
        <flowRoot
           xml:space="preserve"
           id="flowRoot37750"
           style="font-style:normal;font-variant:normal;font-weight:normal;font-stretch:condensed;font-size:42.66666794px;line-height:125%;font-family:'Bernard MT Condensed';-inkscape-font-specification:'Bernard MT Condensed, Condensed';text-align:center;text-anchor:middle;opacity:1;fill:#009090;fill-opacity:1;stroke:none;stroke-width:1.81220937;stroke-linecap:butt;stroke-linejoin:miter;stroke-miterlimit:4;stroke-dasharray:none;stroke-dashoffset:0;stroke-opacity:1;paint-order:normal"
           transform="matrix(0.04245283,0,0,0.03813559,-0.89147335,3.0049997)"><flowRegion
             id="flowRegion37746"
             style="stroke-width:1.81220937"><rect
               id="rect37744"
               width="85.357887"
               height="79.796928"
               x="20.203051"
               y="24.999882"
               style="stroke-width:1.81220937" /></flowRegion><flowPara
             id="flowPara37748"
             style="font-style:normal;font-variant:normal;font-weight:normal;font-stretch:normal;font-family:'Harlow Solid Italic';-inkscape-font-specification:'Harlow Solid Italic, ';fill:#ffffff;stroke-width:0.4821035">Q</flowPara></flowRoot>      </g>
    </g>
    <g
       id="g37818"
       transform="translate(2.8645834,1.1354168)">
      <g
         id="g37778">
        <rect
           y="4.4895844"
           x="1.3020841"
           height="1.3020819"
           width="1.3020828"
           id="rect37671"
           style="opacity:1;fill:#009090;fill-opacity:1;stroke:none;stroke-width:0.07291668;stroke-linecap:butt;stroke-linejoin:miter;stroke-miterlimit:4;stroke-dasharray:none;stroke-dashoffset:0;stroke-opacity:1;paint-order:normal" />
        <flowRoot
           transform="matrix(0.03090104,0,0,0.02775856,-0.12389323,3.5882633)"
           style="font-style:normal;font-variant:normal;font-weight:normal;font-stretch:condensed;font-size:42.66666794px;line-height:125%;font-family:'Bernard MT Condensed';-inkscape-font-specification:'Bernard MT Condensed, Condensed';text-align:center;text-anchor:middle;opacity:1;fill:#009090;fill-opacity:1;stroke:none;stroke-width:2.48967075;stroke-linecap:butt;stroke-linejoin:miter;stroke-miterlimit:4;stroke-dasharray:none;stroke-dashoffset:0;stroke-opacity:1;paint-order:normal"
           id="flowRoot37679"
           xml:space="preserve"><flowRegion
             style="stroke-width:2.48967075"
             id="flowRegion37675"><rect
               style="stroke-width:2.48967075"
               y="24.999882"
               x="20.203051"
               height="79.796928"
               width="85.357887"
               id="rect37673" /></flowRegion><flowPara
             style="font-style:normal;font-variant:normal;font-weight:normal;font-stretch:normal;font-family:'Harlow Solid Italic';-inkscape-font-specification:'Harlow Solid Italic, ';fill:#ffffff;stroke-width:0.66232908"
             id="flowPara37677">Q</flowPara></flowRoot>      </g>
      <g
         style="stroke-width:7.81249666"
         transform="matrix(0.12800006,0,0,0.12800006,1.6562498,5.4774161)"
         id="g37790">
        <rect
           style="opacity:1;fill:#009090;fill-opacity:1;stroke:none;stroke-width:0.56966132;stroke-linecap:butt;stroke-linejoin:miter;stroke-miterlimit:4;stroke-dasharray:none;stroke-dashoffset:0;stroke-opacity:1;paint-order:normal"
           id="rect37780"
           width="1.3020828"
           height="1.3020819"
           x="1.3020841"
           y="4.4895844" />
        <flowRoot
           xml:space="preserve"
           id="flowRoot37788"
           style="font-style:normal;font-variant:normal;font-weight:normal;font-stretch:condensed;font-size:42.66666794px;line-height:125%;font-family:'Bernard MT Condensed';-inkscape-font-specification:'Bernard MT Condensed, Condensed';text-align:center;text-anchor:middle;opacity:1;fill:#009090;fill-opacity:1;stroke:none;stroke-width:19.45054436;stroke-linecap:butt;stroke-linejoin:miter;stroke-miterlimit:4;stroke-dasharray:none;stroke-dashoffset:0;stroke-opacity:1;paint-order:normal"
           transform="matrix(0.03090104,0,0,0.02775856,-0.12389323,3.5882633)"><flowRegion
             id="flowRegion37784"
             style="stroke-width:19.45054436"><rect
               id="rect37782"
               width="85.357887"
               height="79.796928"
               x="20.203051"
               y="24.999882"
               style="stroke-width:19.45054436" /></flowRegion><flowPara
             id="flowPara37786"
             style="font-style:normal;font-variant:normal;font-weight:normal;font-stretch:normal;font-family:'Harlow Solid Italic';-inkscape-font-specification:'Harlow Solid Italic, ';fill:#ffffff;stroke-width:5.17444372">Q</flowPara></flowRoot>      </g>
    </g>
    <flowRoot
       transform="matrix(0.0393531,0,0,0.03535109,-0.37949989,1.3035415)"
       style="font-style:normal;font-variant:normal;font-weight:normal;font-stretch:condensed;font-size:42.66666794px;line-height:125%;font-family:'Bernard MT Condensed';-inkscape-font-specification:'Bernard MT Condensed, Condensed';text-align:center;text-anchor:middle;opacity:1;fill:#009090;fill-opacity:1;stroke:#009090;stroke-width:2.56936455;stroke-linecap:butt;stroke-linejoin:miter;stroke-miterlimit:4;stroke-dasharray:none;stroke-dashoffset:0;stroke-opacity:1;paint-order:normal"
       id="flowRoot37826"
       xml:space="preserve"><flowRegion
         style="stroke:#009090;stroke-width:2.56936455;stroke-miterlimit:4;stroke-dasharray:none;stroke-opacity:1"
         id="flowRegion37822"><rect
           style="stroke:#009090;stroke-width:2.56936455;stroke-miterlimit:4;stroke-dasharray:none;stroke-opacity:1"
           y="24.999882"
           x="20.203051"
           height="79.796928"
           width="85.357887"
           id="rect37820" /></flowRegion><flowPara
         style="font-style:normal;font-variant:normal;font-weight:normal;font-stretch:normal;font-family:'Harlow Solid Italic';-inkscape-font-specification:'Harlow Solid Italic, ';fill:#ffffff;stroke:#009090;stroke-width:2.56936455;stroke-miterlimit:4;stroke-dasharray:none;stroke-opacity:1"
         id="flowPara37824">Q</flowPara></flowRoot>    <g
       id="g37915"
       transform="translate(1.993127,-2.701539)">
      <g
         id="g37847">
        <flowRoot
           xml:space="preserve"
           id="flowRoot37643"
           style="font-style:normal;font-variant:normal;font-weight:normal;font-stretch:condensed;font-size:42.66666794px;line-height:125%;font-family:'Bernard MT Condensed';-inkscape-font-specification:'Bernard MT Condensed, Condensed';text-align:center;text-anchor:middle;opacity:1;fill:#009090;fill-opacity:1;stroke:#009090;stroke-width:2.54679441;stroke-linecap:butt;stroke-linejoin:miter;stroke-miterlimit:4;stroke-dasharray:none;stroke-dashoffset:0;stroke-opacity:1;paint-order:normal"
           transform="matrix(0.03020793,0,0,0.02713594,-0.07730595,3.6230824)"><flowRegion
             id="flowRegion37645"
             style="stroke:#009090;stroke-width:2.54679441;stroke-miterlimit:4;stroke-dasharray:none;stroke-opacity:1"><rect
               id="rect37647"
               width="85.357887"
               height="79.796928"
               x="20.203051"
               y="24.999882"
               style="stroke:#009090;stroke-width:2.54679441;stroke-miterlimit:4;stroke-dasharray:none;stroke-opacity:1" /></flowRegion><flowPara
             id="flowPara37649"
             style="font-style:normal;font-variant:normal;font-weight:normal;font-stretch:normal;font-family:'Harlow Solid Italic';-inkscape-font-specification:'Harlow Solid Italic, ';fill:#ffffff;stroke:#009090;stroke-width:2.54679441;stroke-miterlimit:4;stroke-dasharray:none;stroke-opacity:1">Q</flowPara></flowRoot>        <rect
           style="opacity:1;fill:none;fill-opacity:1;stroke:none;stroke-width:0.07291667;stroke-linecap:butt;stroke-linejoin:miter;stroke-miterlimit:4;stroke-dasharray:none;stroke-dashoffset:0;stroke-opacity:1;paint-order:normal"
           id="rect37840"
           width="1.3020834"
           height="1.3020834"
           x="1.3020835"
           y="4.4895835" />
      </g>
      <g
         transform="matrix(0.128,0,0,0.128,1.65625,5.4774165)"
         id="g37859">
        <flowRoot
           transform="matrix(0.03020793,0,0,0.02713594,-0.07730595,3.6230824)"
           style="font-style:normal;font-variant:normal;font-weight:normal;font-stretch:condensed;font-size:42.66666794px;line-height:125%;font-family:'Bernard MT Condensed';-inkscape-font-specification:'Bernard MT Condensed, Condensed';text-align:center;text-anchor:middle;opacity:1;fill:#009090;fill-opacity:1;stroke:none;stroke-width:2.54679441;stroke-linecap:butt;stroke-linejoin:miter;stroke-miterlimit:4;stroke-dasharray:none;stroke-dashoffset:0;stroke-opacity:1;paint-order:normal"
           id="flowRoot37855"
           xml:space="preserve"><flowRegion
             style="fill:#009090;fill-opacity:1;stroke:none;stroke-width:2.54679441;stroke-miterlimit:4;stroke-dasharray:none;stroke-opacity:1"
             id="flowRegion37851"><rect
               style="fill:#009090;fill-opacity:1;stroke:none;stroke-width:2.54679441;stroke-miterlimit:4;stroke-dasharray:none;stroke-opacity:1"
               y="24.999882"
               x="20.203051"
               height="79.796928"
               width="85.357887"
               id="rect37849" /></flowRegion><flowPara
             style="font-style:normal;font-variant:normal;font-weight:normal;font-stretch:normal;font-family:'Harlow Solid Italic';-inkscape-font-specification:'Harlow Solid Italic, ';fill:#009090;fill-opacity:1;stroke:none;stroke-width:2.54679441;stroke-miterlimit:4;stroke-dasharray:none;stroke-opacity:1"
             id="flowPara37853">Q</flowPara></flowRoot>        <rect
           y="4.4895835"
           x="1.3020835"
           height="1.3020834"
           width="1.3020834"
           id="rect37857"
           style="opacity:1;fill:none;fill-opacity:1;stroke:none;stroke-width:0.07291667;stroke-linecap:butt;stroke-linejoin:miter;stroke-miterlimit:4;stroke-dasharray:none;stroke-dashoffset:0;stroke-opacity:1;paint-order:normal" />
      </g>
    </g>
    <g
       id="g38106">
      <g
         id="g38036">
        <rect
           y="4.489583"
           x="1.302084"
           height="1.3020819"
           width="1.3020828"
           id="rect37931"
           style="opacity:1;fill:#009090;fill-opacity:1;stroke:none;stroke-width:0.07291668;stroke-linecap:butt;stroke-linejoin:miter;stroke-miterlimit:4;stroke-dasharray:none;stroke-dashoffset:0;stroke-opacity:1;paint-order:normal" />
        <path
           style="opacity:1;fill:#ffffff;fill-opacity:1;stroke:none;stroke-width:0.00933334;stroke-linecap:butt;stroke-linejoin:miter;stroke-miterlimit:4;stroke-dasharray:none;stroke-dashoffset:0;stroke-opacity:1;paint-order:normal"
           d="m 2.0480247,4.6406283 c -0.091194,2.403e-4 -0.1835178,0.025341 -0.2636636,0.065853 -0.1066012,0.051163 -0.1913867,0.1357764 -0.2660289,0.225521 -0.1027035,0.1302306 -0.1112998,0.3163035 -0.045291,0.464968 0.061395,0.1462457 0.2126295,0.2348599 0.3772096,0.2474251 0,0 0.032966,0.00169 0.049355,2.498e-4 0.087903,-0.00772 0.1651334,-0.0172 0.2604348,-0.047468 0.010603,0.00955 0.021718,0.018623 0.033607,0.027006 0.053787,0.043314 0.1242072,0.054911 0.1913672,0.056252 0.039169,-0.028765 0.078346,-0.057529 0.1175172,-0.086294 C 2.460238,5.5982712 2.41685,5.5963112 2.3759776,5.5840192 2.343891,5.5737758 2.315626,5.5572168 2.290178,5.5368158 2.4514119,5.4210899 2.5314351,5.1811068 2.47808,4.989544 2.4399142,4.8686716 2.3636073,4.7543909 2.2524885,4.6896613 2.1891936,4.6552927 2.1189527,4.6404413 2.0480247,4.6406283 Z m -0.1142695,0.092401 c 0.088677,0.00146 0.1779583,0.03354 0.2440009,0.091305 0.084611,0.084156 0.141303,0.1970203 0.1603375,0.3148325 C 2.3563327,5.257738 2.321944,5.3951478 2.2252361,5.4706802 2.2037046,5.4439528 2.1843242,5.415331 2.1662477,5.3872635 2.125615,5.3283505 2.0925927,5.2600053 2.0315388,5.2191068 c -0.047599,-0.034562 -0.110196,-0.025997 -0.162685,-0.00916 -0.081761,0.027838 -0.1533235,0.078226 -0.2277272,0.1209591 -0.00176,9.992e-4 -0.00364,0.00211 -0.00545,0.00314 -0.037749,-0.065958 -0.059275,-0.1388275 -0.055517,-0.2094923 0.00923,-0.1069169 0.044697,-0.2153865 0.1131575,-0.2990708 0.063676,-0.064749 0.1517588,-0.093911 0.2404356,-0.092454 z m -0.093214,0.5477666 c 0.04715,-3.298e-4 0.090835,0.027799 0.1219653,0.062184 0.048737,0.055729 0.086342,0.1215638 0.1313376,0.1807061 C 2.0357541,5.528836 1.9593739,5.552088 1.871894,5.550825 1.784414,5.549565 1.7125892,5.4437582 1.6671776,5.3825159 c 0.012996,-0.00845 0.023171,-0.019748 0.026988,-0.037331 0.00721,-0.014592 0.018269,-0.025751 0.031047,-0.035336 0.030208,-0.013535 0.061927,-0.023559 0.094942,-0.027111 0.00685,-0.00127 0.013651,-0.00189 0.020387,-0.00194 z"
           id="path37980"
           inkscape:connector-curvature="0"
           sodipodi:nodetypes="ccccsaccccccccccccccccccccccccczcccccc" />
      </g>
      <g
         style="stroke-width:7.81249666"
         transform="matrix(0.12800006,0,0,0.12800006,1.2544647,5.4781589)"
         id="g38042">
        <rect
           style="opacity:1;fill:#009090;fill-opacity:1;stroke:none;stroke-width:0.56966132;stroke-linecap:butt;stroke-linejoin:miter;stroke-miterlimit:4;stroke-dasharray:none;stroke-dashoffset:0;stroke-opacity:1;paint-order:normal"
           id="rect38038"
           width="1.3020828"
           height="1.3020819"
           x="1.302084"
           y="4.489583" />
        <path
           sodipodi:nodetypes="ccccsaccccccccccccccccccccccccczcccccc"
           inkscape:connector-curvature="0"
           id="path38040"
           d="m 2.0480247,4.6406283 c -0.091194,2.403e-4 -0.1835178,0.025341 -0.2636636,0.065853 -0.1066012,0.051163 -0.1913867,0.1357764 -0.2660289,0.225521 -0.1027035,0.1302306 -0.1112998,0.3163035 -0.045291,0.464968 0.061395,0.1462457 0.2126295,0.2348599 0.3772096,0.2474251 0,0 0.032966,0.00169 0.049355,2.498e-4 0.087903,-0.00772 0.1651334,-0.0172 0.2604348,-0.047468 0.010603,0.00955 0.021718,0.018623 0.033607,0.027006 0.053787,0.043314 0.1242072,0.054911 0.1913672,0.056252 0.039169,-0.028765 0.078346,-0.057529 0.1175172,-0.086294 C 2.460238,5.5982712 2.41685,5.5963112 2.3759776,5.5840192 2.343891,5.5737758 2.315626,5.5572168 2.290178,5.5368158 2.4514119,5.4210899 2.5314351,5.1811068 2.47808,4.989544 2.4399142,4.8686716 2.3636073,4.7543909 2.2524885,4.6896613 2.1891936,4.6552927 2.1189527,4.6404413 2.0480247,4.6406283 Z m -0.1142695,0.092401 c 0.088677,0.00146 0.1779583,0.03354 0.2440009,0.091305 0.084611,0.084156 0.141303,0.1970203 0.1603375,0.3148325 C 2.3563327,5.257738 2.321944,5.3951478 2.2252361,5.4706802 2.2037046,5.4439528 2.1843242,5.415331 2.1662477,5.3872635 2.125615,5.3283505 2.0925927,5.2600053 2.0315388,5.2191068 c -0.047599,-0.034562 -0.110196,-0.025997 -0.162685,-0.00916 -0.081761,0.027838 -0.1533235,0.078226 -0.2277272,0.1209591 -0.00176,9.992e-4 -0.00364,0.00211 -0.00545,0.00314 -0.037749,-0.065958 -0.059275,-0.1388275 -0.055517,-0.2094923 0.00923,-0.1069169 0.044697,-0.2153865 0.1131575,-0.2990708 0.063676,-0.064749 0.1517588,-0.093911 0.2404356,-0.092454 z m -0.093214,0.5477666 c 0.04715,-3.298e-4 0.090835,0.027799 0.1219653,0.062184 0.048737,0.055729 0.086342,0.1215638 0.1313376,0.1807061 C 2.0357541,5.528836 1.9593739,5.552088 1.871894,5.550825 1.784414,5.549565 1.7125892,5.4437582 1.6671776,5.3825159 c 0.012996,-0.00845 0.023171,-0.019748 0.026988,-0.037331 0.00721,-0.014592 0.018269,-0.025751 0.031047,-0.035336 0.030208,-0.013535 0.061927,-0.023559 0.094942,-0.027111 0.00685,-0.00127 0.013651,-0.00189 0.020387,-0.00194 z"
           style="opacity:1;fill:#ffffff;fill-opacity:1;stroke:none;stroke-width:0.07291669;stroke-linecap:butt;stroke-linejoin:miter;stroke-miterlimit:4;stroke-dasharray:none;stroke-dashoffset:0;stroke-opacity:1;paint-order:normal" />
      </g>
      <g
         id="g38073"
         transform="matrix(0.25600011,0,0,0.25600011,1.5937502,4.7591469)"
         style="stroke-width:3.90624857">
        <rect
           y="4.489583"
           x="1.302084"
           height="1.3020819"
           width="1.3020828"
           id="rect38069"
           style="opacity:1;fill:#009090;fill-opacity:1;stroke:none;stroke-width:0.28483066;stroke-linecap:butt;stroke-linejoin:miter;stroke-miterlimit:4;stroke-dasharray:none;stroke-dashoffset:0;stroke-opacity:1;paint-order:normal" />
        <path
           style="opacity:1;fill:#ffffff;fill-opacity:1;stroke:none;stroke-width:0.03645834;stroke-linecap:butt;stroke-linejoin:miter;stroke-miterlimit:4;stroke-dasharray:none;stroke-dashoffset:0;stroke-opacity:1;paint-order:normal"
           d="m 2.0480247,4.6406283 c -0.091194,2.403e-4 -0.1835178,0.025341 -0.2636636,0.065853 -0.1066012,0.051163 -0.1913867,0.1357764 -0.2660289,0.225521 -0.1027035,0.1302306 -0.1112998,0.3163035 -0.045291,0.464968 0.061395,0.1462457 0.2126295,0.2348599 0.3772096,0.2474251 0,0 0.032966,0.00169 0.049355,2.498e-4 0.087903,-0.00772 0.1651334,-0.0172 0.2604348,-0.047468 0.010603,0.00955 0.021718,0.018623 0.033607,0.027006 0.053787,0.043314 0.1242072,0.054911 0.1913672,0.056252 0.039169,-0.028765 0.078346,-0.057529 0.1175172,-0.086294 C 2.460238,5.5982712 2.41685,5.5963112 2.3759776,5.5840192 2.343891,5.5737758 2.315626,5.5572168 2.290178,5.5368158 2.4514119,5.4210899 2.5314351,5.1811068 2.47808,4.989544 2.4399142,4.8686716 2.3636073,4.7543909 2.2524885,4.6896613 2.1891936,4.6552927 2.1189527,4.6404413 2.0480247,4.6406283 Z m -0.1142695,0.092401 c 0.088677,0.00146 0.1779583,0.03354 0.2440009,0.091305 0.084611,0.084156 0.141303,0.1970203 0.1603375,0.3148325 C 2.3563327,5.257738 2.321944,5.3951478 2.2252361,5.4706802 2.2037046,5.4439528 2.1843242,5.415331 2.1662477,5.3872635 2.125615,5.3283505 2.0925927,5.2600053 2.0315388,5.2191068 c -0.047599,-0.034562 -0.110196,-0.025997 -0.162685,-0.00916 -0.081761,0.027838 -0.1533235,0.078226 -0.2277272,0.1209591 -0.00176,9.992e-4 -0.00364,0.00211 -0.00545,0.00314 -0.037749,-0.065958 -0.059275,-0.1388275 -0.055517,-0.2094923 0.00923,-0.1069169 0.044697,-0.2153865 0.1131575,-0.2990708 0.063676,-0.064749 0.1517588,-0.093911 0.2404356,-0.092454 z m -0.093214,0.5477666 c 0.04715,-3.298e-4 0.090835,0.027799 0.1219653,0.062184 0.048737,0.055729 0.086342,0.1215638 0.1313376,0.1807061 C 2.0357541,5.528836 1.9593739,5.552088 1.871894,5.550825 1.784414,5.549565 1.7125892,5.4437582 1.6671776,5.3825159 c 0.012996,-0.00845 0.023171,-0.019748 0.026988,-0.037331 0.00721,-0.014592 0.018269,-0.025751 0.031047,-0.035336 0.030208,-0.013535 0.061927,-0.023559 0.094942,-0.027111 0.00685,-0.00127 0.013651,-0.00189 0.020387,-0.00194 z"
           id="path38071"
           inkscape:connector-curvature="0"
           sodipodi:nodetypes="ccccsaccccccccccccccccccccccccczcccccc" />
      </g>
    </g>
  </g>
</svg>
